<?xml version="1.0" encoding="utf-8"?>
<!-- Generator: Adobe Illustrator 19.0.0, SVG Export Plug-In . SVG Version: 6.00 Build 0)  -->
<svg version="1.1" id="Capa_1" xmlns="http://www.w3.org/2000/svg" xmlns:xlink="http://www.w3.org/1999/xlink" x="0px" y="0px"
	 viewBox="248 -248 512 512" style="enable-background:new 248 -248 512 512;" xml:space="preserve">
<style type="text/css">
	.st0{fill:#FFFFFF;}
</style>
<path class="st0" d="M648.3-175.9c-13.2,0-26.1,3-37.9,8.6C596.8-214.6,553.1-248,503-248c-49.7,0-93.2,33.1-107.1,79.9
	c-11.3-5.1-23.6-7.8-36.2-7.8c-48.3,0-87.7,39.3-87.7,87.7s39.3,87.7,87.7,87.7c0.1,0,0.3,0,0.4,0L376.3,209
	c0.3,3.9,3.6,6.9,7.5,6.9h33.5c3.4,13.8,15.8,24,30.7,24c10.2,0,32-10.3,46.6-17.9c-2.8,8.9-9.4,20.2-24.8,27.7
	c-3.4,1.7-5.1,5.8-3.8,9.4c1.5,4.1,6.4,6,10.3,4.1c14.2-6.9,22.7-16.3,27.8-25.5c5.1,9.2,13.6,18.6,27.8,25.5
	c3.9,1.9,8.8,0,10.3-4.1c1.4-3.6-0.3-7.7-3.8-9.4c-15.4-7.5-22-18.8-24.8-27.7c14.6,7.6,36.3,17.9,46.6,17.9
	c14.8,0,27.3-10.3,30.7-24h33.5c3.9,0,7.2-3.1,7.5-6.9l10.8-140.8c0.3-4.1-2.8-7.8-6.9-8.1c-4.2-0.3-7.7,2.8-8.1,6.9l-3.5,45.6H561
	l14.6-87.4c0.7-4.1-2.1-8-6.2-8.6c-4.1-0.7-8,2.1-8.6,6.2l-15,89.9h-34.2V8c0-4.1-3.4-7.5-7.5-7.5c-4.2,0-7.5,3.4-7.5,7.5v104.7
	h-34.2l-15-89.9c-0.7-4.1-4.5-6.9-8.6-6.2c-4.1,0.7-6.9,4.6-6.2,8.6l14.6,87.4h-63.1L375.1-1.9c21.7-3.9,41.5-16,54.9-34
	c2.5-3.3,1.8-8-1.5-10.5c-3.3-2.5-8-1.8-10.5,1.5c-13.9,18.6-35.1,29.3-58.3,29.3c-40.1,0-72.6-32.6-72.6-72.6s32.6-72.6,72.6-72.6
	c13.2,0,26,3.6,37.3,10.3c4.4,2.6,10.2,0,11.2-5c9-44.9,48.9-77.5,94.8-77.5c46.4,0,86.3,33,95,78.5c1,5.1,7,7.7,11.4,4.9
	c11.6-7.4,25.1-11.3,38.9-11.3c40.1,0,72.6,32.6,72.6,72.6s-32.6,72.6-72.6,72.6c-22,0-42.6-9.8-56.5-27c-2.6-3.2-7.3-3.7-10.6-1.1
	c-3.2,2.6-3.7,7.3-1.1,10.6c13.5,16.6,32.1,27.6,52.8,31.2L630.2,33c-0.3,4.1,2.8,7.8,6.9,8.1c0.2,0,0.4,0,0.6,0
	c3.9,0,7.2-3,7.5-6.9l2.7-34.7c0.1,0,0.3,0,0.4,0c48.3,0,87.7-39.3,87.7-87.7S696.6-175.9,648.3-175.9z M447.9,224.9
	c-9.1,0-16.5-7.4-16.5-16.5s7.4-16.5,16.5-16.5c6.1,0,24.4,8.3,40.3,16.5C472.3,216.6,454,224.9,447.9,224.9z M560.1,224.9
	c-6.1,0-24.4-8.3-40.3-16.5c15.8-8.2,34.1-16.5,40.3-16.5c9.1,0,16.5,7.4,16.5,16.5C576.6,217.5,569.2,224.9,560.1,224.9z
	 M622.9,127.7l-5.6,73.1h-26.5c-3.4-13.8-15.8-24-30.7-24c-12.9,0-44,16.3-56.1,23c-12.1-6.6-43.3-23-56.1-23
	c-14.8,0-27.3,10.3-30.7,24h-26.5l-5.6-73.1H622.9z"/>
<path class="st0" d="M557.6-56.5c-16.1,11-35,16.9-54.6,16.9c-14.9,0-29.2-3.3-42.5-9.8c-3.7-1.8-8.2-0.3-10.1,3.4
	s-0.3,8.2,3.4,10.1c15.4,7.5,31.9,11.4,49.1,11.4c22.7,0,44.5-6.7,63.1-19.5c3.4-2.3,4.3-7,1.9-10.4C565.7-57.9,561-58.8,557.6-56.5
	z"/>
</svg>
